<svg width="77" height="45" viewBox="0 0 77 45" fill="none" xmlns="http://www.w3.org/2000/svg">
<rect x="0.401306" width="75.715" height="44.8681" rx="5" fill="#F8F8F8"/>
<path fill-rule="evenodd" clip-rule="evenodd" d="M19.47 10.5971C19.2805 10.6275 19.067 10.6933 18.9323 10.7628C18.7721 10.8455 10.2926 15.8197 10.1274 15.9279C9.97508 16.0277 9.81074 16.1885 9.6766 16.3691C9.54489 16.5464 9.3771 16.8957 9.31982 17.1117V17.1117C9.2902 17.2235 9.27521 17.3386 9.27521 17.4542V22.5775V27.6941C9.27521 27.8142 9.28997 27.9338 9.31918 28.0503V28.0503C9.41152 28.4185 9.56843 28.705 9.82747 28.9784C9.91749 29.0735 10.0493 29.191 10.1204 29.2396C10.2646 29.3381 18.7314 34.3083 18.9342 34.4135C19.0049 34.4501 19.1496 34.5037 19.2558 34.5324C19.4274 34.579 19.4844 34.5848 19.7704 34.5848C20.0563 34.5848 20.1134 34.579 20.285 34.5324C20.3911 34.5037 20.5358 34.4501 20.6066 34.4133C20.7664 34.3303 29.2507 29.3537 29.3983 29.2564C29.5384 29.1641 29.8092 28.8965 29.9145 28.7463C30.0173 28.5998 30.1101 28.4139 30.1718 28.2314C30.2793 27.9131 30.2751 28.1409 30.2752 22.5938C30.2753 19.0976 30.2688 17.4219 30.2547 17.3162C30.1936 16.8576 29.9088 16.3463 29.54 16.0329C29.4345 15.9431 28.321 15.2801 25.0988 13.3884C22.7335 11.9999 20.7266 10.8258 20.6389 10.7794C20.4088 10.6576 20.1521 10.5957 19.8386 10.5863C19.6993 10.5821 19.5334 10.587 19.47 10.5971ZM20.2089 15.5078C21.8061 15.6135 23.1371 16.1718 24.3602 17.2491C24.4955 17.3683 24.9013 17.788 25.0562 17.969C25.2921 18.2446 25.6935 18.8016 25.79 18.9873C25.8151 19.0356 25.8409 19.0179 25.1983 19.3937C25.0589 19.4752 24.5897 19.7511 24.1556 20.0069C23.0905 20.6342 22.8142 20.7952 22.8023 20.7952C22.7968 20.7952 22.7792 20.7695 22.7633 20.7382C22.6952 20.6045 22.4189 20.255 22.2278 20.0608C21.6699 19.4939 21.0261 19.1679 20.2348 19.0516C20.0303 19.0215 19.5015 19.027 19.2789 19.0616C18.7518 19.1433 18.2663 19.3328 17.8395 19.6232C16.932 20.2406 16.3887 21.2047 16.2808 22.3889C16.2334 22.91 16.355 23.5557 16.6017 24.0921C17.0414 25.0483 17.8993 25.7708 18.9193 26.0443C20.315 26.4184 21.6882 25.9078 22.5976 24.6767C22.6741 24.5732 22.7491 24.464 22.7645 24.4341C22.7798 24.4041 22.797 24.3796 22.8028 24.3796C22.8127 24.3796 23.4407 24.7455 23.6683 24.8838C23.7273 24.9197 23.9509 25.0515 24.1653 25.1768C24.582 25.4204 25.4379 25.9234 25.6709 26.0617C25.7486 26.1078 25.8122 26.1497 25.8122 26.1549C25.8122 26.1717 25.5803 26.5396 25.4492 26.7305C24.8404 27.6178 24.0107 28.3729 23.1091 28.8603C22.0275 29.4449 20.9235 29.7093 19.6827 29.6808C18.5582 29.655 17.5729 29.4058 16.5762 28.8949C14.6328 27.8989 13.3107 26.0948 12.9116 23.8944C12.6383 22.387 12.8037 20.9281 13.3984 19.6006C13.9082 18.4629 14.768 17.448 15.8276 16.7336C15.9714 16.6366 16.0928 16.5572 16.0974 16.5572C16.1019 16.5572 16.1557 16.5247 16.2169 16.4849C16.4862 16.3098 17.2293 15.975 17.6393 15.8441C18.2633 15.6447 18.924 15.5271 19.5658 15.5011C19.8733 15.4887 19.9287 15.4893 20.2089 15.5078ZM24.8766 20.612C24.8766 20.6311 24.8592 20.8115 24.838 21.013C24.8167 21.2145 24.7992 21.4039 24.799 21.4338V21.4338C24.7989 21.4639 24.8232 21.4883 24.8532 21.4883H25.1278H25.372C25.4207 21.4883 25.4618 21.4524 25.4684 21.4041V21.4041C25.4747 21.3579 25.4934 21.1818 25.51 21.013C25.5266 20.8442 25.5448 20.6771 25.5504 20.6417V20.6417C25.5563 20.6046 25.5882 20.5773 25.6258 20.5773H25.8427H26.0792C26.1026 20.5773 26.1201 20.599 26.1151 20.6219V20.6219C26.1098 20.6464 26.092 20.809 26.0756 20.9833C26.0592 21.1576 26.0407 21.3422 26.0345 21.3936V21.3936C26.0284 21.4437 26.0668 21.4881 26.1172 21.4891L26.2831 21.4927V21.4927C26.4284 21.4958 26.5453 21.6129 26.5482 21.7582L26.5485 21.7705V21.7705C26.5514 21.92 26.4311 22.0428 26.2815 22.0428H26.261C26.0999 22.0428 25.968 22.0495 25.9678 22.0577C25.9676 22.0658 25.9502 22.2329 25.9291 22.429C25.9081 22.625 25.8907 22.8055 25.8905 22.83C25.8901 22.8738 25.894 22.8745 26.1338 22.8745V22.8745C26.2683 22.8745 26.3774 22.9836 26.3774 23.1182V23.1518V23.1577C26.3774 23.3076 26.2559 23.429 26.1061 23.429V23.429H25.8902C25.8581 23.429 25.8304 23.4519 25.8244 23.4835V23.4835C25.8187 23.5135 25.7941 23.7407 25.7698 23.9885L25.7538 24.1512C25.7377 24.3145 25.6004 24.439 25.4363 24.439V24.439H25.2321C25.1872 24.439 25.1526 24.3994 25.1587 24.3549V24.3549C25.1808 24.1937 25.247 23.5424 25.247 23.4859V23.4859C25.247 23.4545 25.2215 23.429 25.1901 23.429H24.9191V23.429C24.7331 23.429 24.5774 23.5702 24.5592 23.7553L24.5479 23.8697C24.5241 24.112 24.4996 24.3392 24.4936 24.3747V24.3747C24.4872 24.4118 24.455 24.439 24.4172 24.439H24.2021C23.948 24.439 23.9217 24.4358 23.9218 24.4044C23.9219 24.3853 23.9439 24.1697 23.9706 23.9253C23.9973 23.6809 24.0191 23.4692 24.0191 23.455C24.0191 23.4349 23.9616 23.429 23.7658 23.429V23.429C23.6258 23.429 23.5124 23.3156 23.5124 23.1757V23.1518V23.1518C23.5124 22.9987 23.6365 22.8745 23.7897 22.8745H23.7941H24.0107C24.0482 22.8745 24.0802 22.8473 24.086 22.8102V22.8102C24.1027 22.7046 24.1556 22.1661 24.1556 22.1021V22.1021C24.1556 22.0694 24.129 22.0428 24.0963 22.0428H23.9119V22.0428C23.7774 22.0428 23.6683 21.9337 23.6683 21.7992V21.7656V21.7656C23.6683 21.6124 23.7944 21.4883 23.9475 21.4883V21.4883V21.4883C24.1061 21.4883 24.2391 21.3684 24.2555 21.2107L24.2694 21.0774C24.2929 20.8514 24.312 20.6464 24.3118 20.6219C24.3115 20.5777 24.3139 20.5773 24.5941 20.5773C24.8503 20.5773 24.8767 20.5806 24.8766 20.612ZM24.7317 22.0676C24.7276 22.0812 24.71 22.2483 24.6925 22.4389C24.675 22.6295 24.6565 22.8055 24.6514 22.83V22.83C24.6466 22.853 24.6641 22.8745 24.6876 22.8745H24.98V22.8745C25.1718 22.8745 25.3323 22.7291 25.3513 22.5383L25.3518 22.5329C25.3705 22.3451 25.3907 22.1579 25.3968 22.1171V22.1171C25.4027 22.078 25.3724 22.0428 25.3328 22.0428H25.0735C24.8228 22.0428 24.7372 22.049 24.7317 22.0676Z" fill="#F8F8F8"/>
<path d="M48.8771 25.5367H52.4469C52.3752 26.715 52.0529 27.7611 51.4798 28.675C50.9147 29.5888 50.1227 30.3022 49.1039 30.8152C48.0931 31.3283 46.8753 31.5848 45.4506 31.5848C44.3363 31.5848 43.3374 31.3924 42.4539 31.0076C41.5704 30.6148 40.8142 30.0537 40.1855 29.3243C39.5646 28.5948 39.091 27.713 38.7647 26.679C38.4384 25.6449 38.2752 24.4866 38.2752 23.204V21.9896C38.2752 20.707 38.4424 19.5487 38.7766 18.5146C39.1189 17.4726 39.6044 16.5868 40.2332 15.8573C40.87 15.1279 41.6301 14.5667 42.5136 14.174C43.3971 13.7812 44.384 13.5848 45.4745 13.5848C46.9231 13.5848 48.1448 13.8493 49.1398 14.3784C50.1426 14.9074 50.9187 15.6369 51.4679 16.5667C52.025 17.4966 52.3593 18.5547 52.4708 19.7411H48.889C48.8492 19.0357 48.71 18.4385 48.4712 17.9495C48.2324 17.4525 47.8702 17.0798 47.3847 16.8313C46.9072 16.5748 46.2704 16.4465 45.4745 16.4465C44.8775 16.4465 44.3562 16.5587 43.9104 16.7832C43.4647 17.0076 43.0906 17.3483 42.7882 17.8052C42.4857 18.2621 42.2589 18.8393 42.1076 19.5367C41.9644 20.2261 41.8927 21.0357 41.8927 21.9655V23.204C41.8927 24.1098 41.9604 24.9074 42.0957 25.5968C42.231 26.2782 42.438 26.8553 42.7165 27.3283C43.0031 27.7932 43.3692 28.1459 43.8149 28.3864C44.2686 28.6188 44.8138 28.7351 45.4506 28.7351C46.1988 28.7351 46.8156 28.6148 47.3011 28.3744C47.7867 28.1339 48.1568 27.7772 48.4115 27.3042C48.6741 26.8313 48.8293 26.2421 48.8771 25.5367Z" fill="#F8F8F8"/>
<path d="M55.8137 31.3443L58.8462 13.8373H61.0072L57.9747 31.3443H55.8137ZM60.2909 31.3443L63.3353 13.8373H65.4963L62.4518 31.3443H60.2909ZM67.2752 20.8714H54.8466V18.8393H67.2752V20.8714ZM66.3678 26.4144H53.9512V24.3944H66.3678V26.4144Z" fill="#F8F8F8"/>
</svg>
