<svg width="93" height="45" viewBox="0 0 93 45" fill="none" xmlns="http://www.w3.org/2000/svg">
<rect width="93" height="45" rx="5" fill="#000C24"/>
<path d="M51.5486 25.9519H55.1004C55.0292 27.1303 54.7084 28.1764 54.1382 29.0902C53.576 30.004 52.788 30.7174 51.7743 31.2305C50.7685 31.7435 49.5569 32 48.1393 32C47.0306 32 46.0367 31.8076 45.1577 31.4228C44.2786 31.0301 43.5263 30.4689 42.9006 29.7395C42.2829 29.01 41.8117 28.1283 41.487 27.0942C41.1623 26.0601 41 24.9018 41 23.6192V22.4048C41 21.1222 41.1663 19.9639 41.4989 18.9299C41.8395 17.8878 42.3225 17.002 42.9482 16.2725C43.5817 15.5431 44.338 14.982 45.2171 14.5892C46.0961 14.1964 47.0781 14 48.1631 14C49.6044 14 50.82 14.2645 51.8099 14.7936C52.8078 15.3226 53.5799 16.0521 54.1264 16.982C54.6807 17.9118 55.0133 18.9699 55.1242 20.1563H51.5605C51.5209 19.4509 51.3823 18.8537 51.1447 18.3647C50.9071 17.8677 50.5468 17.495 50.0637 17.2465C49.5886 16.99 48.955 16.8617 48.1631 16.8617C47.5691 16.8617 47.0504 16.9739 46.6069 17.1984C46.1634 17.4228 45.7912 17.7635 45.4903 18.2204C45.1893 18.6774 44.9636 19.2545 44.8132 19.9519C44.6706 20.6413 44.5994 21.4509 44.5994 22.3808V23.6192C44.5994 24.5251 44.6667 25.3226 44.8013 26.012C44.9359 26.6934 45.1418 27.2705 45.419 27.7435C45.7041 28.2084 46.0684 28.5611 46.5119 28.8016C46.9633 29.0341 47.5058 29.1503 48.1393 29.1503C48.8837 29.1503 49.4975 29.0301 49.9806 28.7896C50.4636 28.5491 50.8319 28.1924 51.0853 27.7194C51.3467 27.2465 51.5011 26.6573 51.5486 25.9519Z" fill="#F8F8F8"/>
<path d="M66.4449 27.1784C66.4449 26.8657 66.3974 26.5852 66.3024 26.3367C66.2153 26.0802 66.049 25.8477 65.8035 25.6393C65.558 25.4228 65.2135 25.2104 64.77 25.002C64.3265 24.7936 63.7523 24.5772 63.0475 24.3527C62.2635 24.0962 61.5191 23.8076 60.8143 23.487C60.1174 23.1663 59.4996 22.7936 58.9611 22.3687C58.4305 21.9359 58.0108 21.4349 57.7019 20.8657C57.401 20.2966 57.2505 19.6353 57.2505 18.8818C57.2505 18.1523 57.4089 17.491 57.7257 16.8978C58.0425 16.2966 58.486 15.7836 59.0562 15.3587C59.6264 14.9259 60.2995 14.5932 61.0756 14.3607C61.8596 14.1283 62.7189 14.012 63.6533 14.012C64.9284 14.012 66.041 14.2445 66.9914 14.7094C67.9417 15.1743 68.6782 15.8116 69.2009 16.6212C69.7315 17.4309 69.9968 18.3567 69.9968 19.3988H66.4568C66.4568 18.8858 66.3499 18.4369 66.1361 18.0521C65.9302 17.6593 65.6134 17.3507 65.1857 17.1263C64.766 16.9018 64.2354 16.7896 63.594 16.7896C62.9762 16.7896 62.4615 16.8858 62.0497 17.0782C61.6379 17.2625 61.329 17.515 61.1231 17.8357C60.9172 18.1483 60.8143 18.501 60.8143 18.8938C60.8143 19.1904 60.8855 19.4589 61.0281 19.6994C61.1785 19.9399 61.4003 20.1643 61.6933 20.3727C61.9863 20.5812 62.3467 20.7776 62.7743 20.9619C63.2019 21.1463 63.6969 21.3267 64.2592 21.503C65.2016 21.7916 66.0292 22.1162 66.7419 22.477C67.4626 22.8377 68.0644 23.2425 68.5475 23.6914C69.0306 24.1403 69.3949 24.6493 69.6404 25.2184C69.8859 25.7876 70.0086 26.4329 70.0086 27.1543C70.0086 27.9158 69.8621 28.5972 69.5691 29.1984C69.2761 29.7996 68.8524 30.3086 68.2981 30.7255C67.7437 31.1423 67.0824 31.4589 66.3143 31.6754C65.5461 31.8918 64.6868 32 63.7365 32C62.8812 32 62.0378 31.8878 61.2063 31.6633C60.3747 31.4309 59.6184 31.0822 58.9374 30.6172C58.2642 30.1523 57.7257 29.5591 57.3218 28.8377C56.9179 28.1162 56.716 27.2625 56.716 26.2766H60.2916C60.2916 26.8216 60.3747 27.2826 60.541 27.6593C60.7073 28.0361 60.941 28.3407 61.2419 28.5731C61.5508 28.8056 61.915 28.9739 62.3348 29.0782C62.7624 29.1824 63.2297 29.2345 63.7365 29.2345C64.3542 29.2345 64.8611 29.1463 65.257 28.9699C65.6609 28.7936 65.9579 28.5491 66.1479 28.2365C66.3459 27.9238 66.4449 27.5711 66.4449 27.1784Z" fill="#F8F8F8"/>
<path d="M81.4363 27.1784C81.4363 26.8657 81.3888 26.5852 81.2937 26.3367C81.2066 26.0802 81.0403 25.8477 80.7948 25.6393C80.5493 25.4228 80.2048 25.2104 79.7613 25.002C79.3179 24.7936 78.7437 24.5772 78.0389 24.3527C77.2549 24.0962 76.5104 23.8076 75.8056 23.487C75.1087 23.1663 74.491 22.7936 73.9525 22.3687C73.4219 21.9359 73.0022 21.4349 72.6933 20.8657C72.3924 20.2966 72.2419 19.6353 72.2419 18.8818C72.2419 18.1523 72.4003 17.491 72.7171 16.8978C73.0338 16.2966 73.4773 15.7836 74.0475 15.3587C74.6177 14.9259 75.2909 14.5932 76.067 14.3607C76.851 14.1283 77.7102 14.012 78.6447 14.012C79.9197 14.012 81.0324 14.2445 81.9827 14.7094C82.933 15.1743 83.6695 15.8116 84.1922 16.6212C84.7228 17.4309 84.9881 18.3567 84.9881 19.3988H81.4482C81.4482 18.8858 81.3413 18.4369 81.1274 18.0521C80.9215 17.6593 80.6048 17.3507 80.1771 17.1263C79.7574 16.9018 79.2268 16.7896 78.5853 16.7896C77.9676 16.7896 77.4528 16.8858 77.041 17.0782C76.6292 17.2625 76.3204 17.515 76.1145 17.8357C75.9086 18.1483 75.8056 18.501 75.8056 18.8938C75.8056 19.1904 75.8769 19.4589 76.0194 19.6994C76.1699 19.9399 76.3916 20.1643 76.6847 20.3727C76.9777 20.5812 77.338 20.7776 77.7657 20.9619C78.1933 21.1463 78.6883 21.3267 79.2505 21.503C80.1929 21.7916 81.0205 22.1162 81.7333 22.477C82.4539 22.8377 83.0558 23.2425 83.5389 23.6914C84.022 24.1403 84.3862 24.6493 84.6317 25.2184C84.8773 25.7876 85 26.4329 85 27.1543C85 27.9158 84.8535 28.5972 84.5605 29.1984C84.2675 29.7996 83.8438 30.3086 83.2894 30.7255C82.7351 31.1423 82.0738 31.4589 81.3056 31.6754C80.5374 31.8918 79.6782 32 78.7279 32C77.8726 32 77.0292 31.8878 76.1976 31.6633C75.3661 31.4309 74.6098 31.0822 73.9287 30.6172C73.2556 30.1523 72.7171 29.5591 72.3132 28.8377C71.9093 28.1162 71.7073 27.2625 71.7073 26.2766H75.2829C75.2829 26.8216 75.3661 27.2826 75.5324 27.6593C75.6987 28.0361 75.9323 28.3407 76.2333 28.5731C76.5421 28.8056 76.9064 28.9739 77.3261 29.0782C77.7538 29.1824 78.221 29.2345 78.7279 29.2345C79.3456 29.2345 79.8524 29.1463 80.2484 28.9699C80.6523 28.7936 80.9492 28.5491 81.1393 28.2365C81.3373 27.9238 81.4363 27.5711 81.4363 27.1784Z" fill="#F8F8F8"/>
<path d="M9.625 10L11.6969 32.5L21 35L30.2999 32.5016L32.375 10H9.625Z" fill="#F8F8F8"/>
<path d="M27.9453 17.3578L27.6836 20.1844L26.8939 28.6578L21 30.225L20.9951 30.2265L15.1045 28.6578L14.6934 24.2265H17.5794L17.7939 26.525L20.9968 27.3562L20.9984 27.3547L24.2061 26.5234L24.6433 22.6937L14.5553 22.7203L14.2693 20.1015L24.8854 19.9812L25.0999 17.1781L13.9849 17.2078L13.798 14.6H21H28.202L27.9453 17.3578Z" fill="#FAFAFA"/>
</svg>
