<svg width="86" height="46" viewBox="0 0 86 46" fill="none" xmlns="http://www.w3.org/2000/svg">
<rect x="0.439819" width="84.8288" height="45.3015" rx="5" fill="#F8F8F8"/>
<path d="M30.858 21.7501L20.7536 11.646C20.1719 11.064 19.2281 11.064 18.6457 11.646L18.1896 12.1022C17.2828 13.0092 17.2828 14.4796 18.1897 15.3866C18.8141 16.011 19.8269 16.1039 20.6071 16.5173C20.7591 16.5979 20.9019 16.7022 21.03 16.8303C21.0699 16.8702 21.1074 16.9115 21.1427 16.9541C21.8508 17.8088 21.9487 19.1606 22.7336 19.9454C23.5182 20.73 24.8695 20.8272 25.7239 21.5351C25.7667 21.5706 25.8082 21.6084 25.8483 21.6486C26.541 22.341 26.541 23.4635 25.8483 24.1565C25.1552 24.8495 24.033 24.8495 23.3396 24.1565C23.0038 23.8204 22.8309 23.3829 22.8212 22.9424C22.8114 22.4992 22.7497 22.0235 22.4362 21.71C21.7443 21.0181 20.5612 21.5082 20.5612 22.4867V25.5521C20.5612 25.9066 20.7789 26.2159 21.03 26.4662C21.7226 27.1588 21.7226 28.2811 21.03 28.9747C20.3374 29.667 19.2143 29.667 18.5222 28.9747C17.8296 28.2811 17.8296 27.1588 18.5222 26.4662C18.8229 26.1659 19.1032 25.8017 19.1032 25.3767V20.428C19.1032 20.003 18.8223 19.6392 18.5222 19.3382C18.3745 19.1906 18.2584 19.0235 18.1738 18.8452C17.7876 18.0313 17.7246 16.9835 17.0876 16.3464C16.22 15.4787 14.8132 15.4786 13.9454 16.3463L8.58794 21.7033C8.006 22.2858 8.006 23.2296 8.58794 23.8116L18.6929 33.9157C19.2747 34.4977 20.2182 34.4977 20.8008 33.9157L30.858 23.8585C31.4402 23.2763 31.4402 22.3321 30.858 21.7501Z" fill="#000C24"/>
<path d="M54.0111 22.6272V29.5651C53.7406 29.8938 53.3228 30.2505 52.7579 30.6352C52.1929 31.012 51.4649 31.3366 50.5737 31.6092C49.6825 31.8817 48.6043 32.018 47.3392 32.018C46.2172 32.018 45.1948 31.8336 44.2718 31.4649C43.3487 31.0881 42.5531 30.539 41.8847 29.8176C41.2242 29.0962 40.715 28.2144 40.3569 27.1723C39.9989 26.1222 39.8198 24.9238 39.8198 23.5771V22.4829C39.8198 21.1362 39.9909 19.9378 40.3331 18.8877C40.6832 17.8376 41.1805 16.9519 41.825 16.2304C42.4695 15.509 43.2374 14.9599 44.1285 14.5831C45.0197 14.2064 46.0104 14.018 47.1005 14.018C48.6123 14.018 49.8536 14.2665 50.8243 14.7635C51.7951 15.2525 52.5351 15.9338 53.0443 16.8076C53.5615 17.6733 53.8798 18.6673 53.9992 19.7895H50.526C50.4384 19.1964 50.2713 18.6793 50.0247 18.2384C49.778 17.7976 49.4239 17.4529 48.9624 17.2044C48.5089 16.9559 47.92 16.8316 47.196 16.8316C46.5992 16.8316 46.0661 16.9559 45.5966 17.2044C45.1351 17.4449 44.7452 17.8016 44.4269 18.2745C44.1086 18.7475 43.866 19.3326 43.6989 20.03C43.5318 20.7274 43.4482 21.537 43.4482 22.4589V23.5771C43.4482 24.491 43.5357 25.3006 43.7108 26.006C43.8858 26.7034 44.1444 27.2926 44.4866 27.7735C44.8367 28.2465 45.2664 28.6032 45.7756 28.8437C46.2849 29.0841 46.8777 29.2044 47.554 29.2044C48.119 29.2044 48.5884 29.1563 48.9624 29.0601C49.3443 28.9639 49.6507 28.8477 49.8814 28.7114C50.1201 28.5671 50.3032 28.4308 50.4305 28.3026V25.2004H47.1601V22.6272H54.0111Z" fill="#000C24"/>
<path d="M60.7069 14.2705V31.7775H57.1382V14.2705H60.7069Z" fill="#000C24"/>
<path d="M71.4727 14.2705V31.7775H67.904V14.2705H71.4727ZM76.8198 14.2705V17.0962H62.6405V14.2705H76.8198Z" fill="#000C24"/>
</svg>
