<svg width="114" height="45" viewBox="0 0 114 45" fill="none" xmlns="http://www.w3.org/2000/svg">
<rect width="114" height="45" rx="5" fill="#F8F8F8"/>
<g clip-path="url(#clip0_110_92)">
<path d="M9.57412 10.8276L11.1967 31.5852C11.221 31.8969 11.432 32.1627 11.7301 32.2572L20.268 34.9641C20.419 35.012 20.5811 35.012 20.732 34.9641L29.2699 32.2572C29.568 32.1627 29.779 31.8969 29.8033 31.5852L31.4259 10.8276C31.4608 10.3813 31.1081 10 30.6605 10H10.3396C9.89199 10 9.53928 10.3813 9.57412 10.8276ZM27.265 17.268H16.6905L17.0096 20.2108H27.035L26.3791 28.6004L20.5 30.4644L14.6209 28.6004L14.2783 24.2174H17.3641V26.3673L20.5825 27.2311L23.7816 26.3673L24.0298 22.9409H14.1785L13.5245 14.5733H27.4755L27.265 17.268Z" fill="#000C24"/>
</g>
<path d="M51.6534 20.9238V23.6559H42.5323V20.9238H51.6534ZM43.6004 14V31H40V14H43.6004ZM54.2218 14V31H50.6333V14H54.2218Z" fill="#000C24"/>
<path d="M64.8071 14V31H61.2186V14H64.8071ZM70.1837 14V16.7438H55.926V14H70.1837Z" fill="#000C24"/>
<path d="M73.8802 14H76.9285L81.4171 26.4815L85.9057 14H88.954L82.6413 31H80.1929L73.8802 14ZM72.236 14H75.2723L75.8244 26.1662V31H72.236V14ZM87.5619 14H90.6102V31H87.0098V26.1662L87.5619 14Z" fill="#000C24"/>
<path d="M105 28.2679V31H96.2029V28.2679H105ZM97.3671 14V31H93.7666V14H97.3671Z" fill="#000C24"/>
<defs>
<clipPath id="clip0_110_92">
<rect x="8" y="10" width="25" height="25" rx="5" fill="white"/>
</clipPath>
</defs>
</svg>
