<svg width="194" height="45" viewBox="0 0 194 45" fill="none" xmlns="http://www.w3.org/2000/svg">
<rect width="194" height="45" rx="5" fill="#F8F8F8"/>
<path fill-rule="evenodd" clip-rule="evenodd" d="M8.41278 18.2842C8.41278 13.8659 11.9945 10.2842 16.4128 10.2842H25.0331C29.4514 10.2842 33.0331 13.8659 33.0331 18.2842V26.9045C33.0331 31.3228 29.4514 34.9045 25.0331 34.9045H16.4128C11.9945 34.9045 8.41278 31.3228 8.41278 26.9045V18.2842ZM29.4011 22.0811C28.8251 22.4943 27.9312 22.1669 27.2468 21.9823C26.5962 21.8069 25.8584 22.0587 25.6464 22.6903C25.2938 23.7407 26.4839 24.3534 28.3352 24.9662C30.1865 25.579 31.3326 27.1984 31.1122 28.6427C30.8918 30.087 30.2747 31.969 26.6162 31.969C24.9606 31.969 23.8376 31.2251 23.1041 30.4105C22.6796 29.939 22.8684 29.2226 23.4132 28.8975C23.9961 28.5497 24.7573 28.8009 25.2747 29.2404C25.5965 29.5138 26.016 29.7369 26.528 29.7369C27.8504 29.7369 28.3793 29.2992 28.3793 28.2926C28.3793 27.7388 27.5063 27.3459 26.4882 26.8878C25.2533 26.332 23.8049 25.6801 23.4425 24.5286C22.7813 22.4277 23.6629 19.4515 26.7483 19.6703C27.9955 19.7587 28.8898 20.1832 29.5127 20.6577C29.9941 21.0243 29.8928 21.7283 29.4011 22.0811ZM18.686 28.3659V21.1982C18.686 20.5049 19.248 19.9429 19.9412 19.9429C20.6345 19.9429 21.1965 20.5049 21.1965 21.1982V29.1555C21.1965 30.5594 19.6109 32.2264 16.8361 32.051C15.2139 31.9483 14.3895 31.2159 13.9846 30.6252C13.6931 30.2 13.9022 29.6687 14.3302 29.3814C15.0027 28.93 15.932 29.3387 16.6794 29.6509C16.7564 29.6831 16.838 29.7087 16.9242 29.7258C17.8051 29.9014 18.686 29.3748 18.686 28.3659Z" fill="#000C24"/>
<path d="M49.1296 26.3848V14.2525H52.7201V26.3848C52.7201 27.5551 52.4639 28.5611 51.9516 29.4028C51.4392 30.2365 50.7387 30.8778 49.8501 31.3267C48.9695 31.7756 47.9768 32 46.872 32C45.7273 32 44.7146 31.8076 43.834 31.4228C42.9533 31.0381 42.2609 30.4489 41.7565 29.6553C41.2522 28.8537 41 27.8397 41 26.6132H44.6145C44.6145 27.2545 44.7026 27.7635 44.8787 28.1403C45.0628 28.517 45.323 28.7856 45.6592 28.9459C45.9954 29.1062 46.3997 29.1864 46.872 29.1864C47.3284 29.1864 47.7246 29.0782 48.0609 28.8617C48.3971 28.6453 48.6573 28.3287 48.8414 27.9118C49.0335 27.495 49.1296 26.986 49.1296 26.3848Z" fill="#000C24"/>
<path d="M62.6389 17.2465L57.8836 31.7595H54.053L60.5495 14.2525H62.9872L62.6389 17.2465ZM66.5896 31.7595L61.8224 17.2465L61.4381 14.2525H63.8998L70.4323 31.7595H66.5896ZM66.3735 25.2425V28.0681H57.1391V25.2425H66.3735Z" fill="#000C24"/>
<path d="M77.3731 28.1042L81.4919 14.2525H85.5027L79.4145 31.7595H76.7727L77.3731 28.1042ZM73.5785 14.2525L77.6853 28.1042L78.3097 31.7595H75.6439L69.5917 14.2525H73.5785Z" fill="#000C24"/>
<path d="M93.3321 17.2465L88.5768 31.7595H84.7462L91.2426 14.2525H93.6803L93.3321 17.2465ZM97.2828 31.7595L92.5155 17.2465L92.1313 14.2525H94.593L101.125 31.7595H97.2828ZM97.0667 25.2425V28.0681H87.8323V25.2425H97.0667Z" fill="#000C24"/>
<path d="M111.849 27.1784C111.849 26.8657 111.801 26.5852 111.705 26.3367C111.617 26.0802 111.449 25.8477 111.2 25.6393C110.952 25.4228 110.604 25.2104 110.156 25.002C109.707 24.7936 109.127 24.5772 108.414 24.3527C107.622 24.0962 106.869 23.8076 106.157 23.487C105.452 23.1663 104.828 22.7936 104.284 22.3687C103.747 21.9359 103.323 21.4349 103.011 20.8657C102.707 20.2966 102.554 19.6353 102.554 18.8818C102.554 18.1523 102.715 17.491 103.035 16.8978C103.355 16.2966 103.803 15.7836 104.38 15.3587C104.956 14.9259 105.637 14.5932 106.421 14.3607C107.214 14.1283 108.082 14.012 109.027 14.012C110.316 14.012 111.441 14.2445 112.401 14.7094C113.362 15.1743 114.106 15.8116 114.635 16.6212C115.171 17.4309 115.439 18.3567 115.439 19.3988H111.861C111.861 18.8858 111.753 18.4369 111.537 18.0521C111.329 17.6593 111.008 17.3507 110.576 17.1263C110.152 16.9018 109.615 16.7896 108.967 16.7896C108.342 16.7896 107.822 16.8858 107.406 17.0782C106.99 17.2625 106.677 17.515 106.469 17.8357C106.261 18.1483 106.157 18.501 106.157 18.8938C106.157 19.1904 106.229 19.4589 106.373 19.6994C106.525 19.9399 106.749 20.1643 107.046 20.3727C107.342 20.5812 107.706 20.7776 108.138 20.9619C108.571 21.1463 109.071 21.3267 109.639 21.503C110.592 21.7916 111.429 22.1162 112.149 22.477C112.878 22.8377 113.486 23.2425 113.974 23.6914C114.463 24.1403 114.831 24.6493 115.079 25.2184C115.327 25.7876 115.451 26.4329 115.451 27.1543C115.451 27.9158 115.303 28.5972 115.007 29.1984C114.711 29.7996 114.283 30.3086 113.722 30.7255C113.162 31.1423 112.493 31.4589 111.717 31.6754C110.94 31.8918 110.072 32 109.111 32C108.246 32 107.394 31.8878 106.553 31.6633C105.713 31.4309 104.948 31.0822 104.26 30.6172C103.579 30.1523 103.035 29.5591 102.627 28.8377C102.218 28.1162 102.014 27.2625 102.014 26.2766H105.629C105.629 26.8216 105.713 27.2826 105.881 27.6593C106.049 28.0361 106.285 28.3407 106.589 28.5731C106.901 28.8056 107.27 28.9739 107.694 29.0782C108.126 29.1824 108.599 29.2345 109.111 29.2345C109.735 29.2345 110.248 29.1463 110.648 28.9699C111.056 28.7936 111.357 28.5491 111.549 28.2365C111.749 27.9238 111.849 27.5711 111.849 27.1784Z" fill="#000C24"/>
<path d="M128.036 25.9519H131.627C131.554 27.1303 131.23 28.1764 130.654 29.0902C130.085 30.004 129.289 30.7174 128.264 31.2305C127.247 31.7435 126.023 32 124.59 32C123.469 32 122.464 31.8076 121.576 31.4228C120.687 31.0301 119.926 30.4689 119.294 29.7395C118.67 29.01 118.193 28.1283 117.865 27.0942C117.537 26.0601 117.373 24.9018 117.373 23.6192V22.4048C117.373 21.1222 117.541 19.9639 117.877 18.9299C118.221 17.8878 118.71 17.002 119.342 16.2725C119.982 15.5431 120.747 14.982 121.636 14.5892C122.524 14.1964 123.517 14 124.614 14C126.071 14 127.3 14.2645 128.3 14.7936C129.309 15.3226 130.089 16.0521 130.642 16.982C131.202 17.9118 131.538 18.9699 131.651 20.1563H128.048C128.008 19.4509 127.868 18.8537 127.628 18.3647C127.388 17.8677 127.023 17.495 126.535 17.2465C126.055 16.99 125.414 16.8617 124.614 16.8617C124.013 16.8617 123.489 16.9739 123.041 17.1984C122.592 17.4228 122.216 17.7635 121.912 18.2204C121.608 18.6774 121.379 19.2545 121.227 19.9519C121.083 20.6413 121.011 21.4509 121.011 22.3808V23.6192C121.011 24.5251 121.079 25.3226 121.215 26.012C121.351 26.6934 121.56 27.2705 121.84 27.7435C122.128 28.2084 122.496 28.5611 122.945 28.8016C123.401 29.0341 123.949 29.1503 124.59 29.1503C125.342 29.1503 125.963 29.0301 126.451 28.7896C126.939 28.5491 127.312 28.1924 127.568 27.7194C127.832 27.2465 127.988 26.6573 128.036 25.9519Z" fill="#000C24"/>
<path d="M133.992 14.2525H140.513C141.85 14.2525 142.998 14.4529 143.959 14.8537C144.928 15.2545 145.672 15.8477 146.193 16.6333C146.713 17.4188 146.973 18.3848 146.973 19.5311C146.973 20.4689 146.813 21.2745 146.493 21.9479C146.181 22.6132 145.736 23.1703 145.16 23.6192C144.591 24.0601 143.923 24.4128 143.154 24.6774L142.014 25.2786H136.346L136.322 22.4649H140.537C141.169 22.4649 141.693 22.3527 142.11 22.1283C142.526 21.9038 142.838 21.5912 143.046 21.1904C143.263 20.7896 143.371 20.3246 143.371 19.7956C143.371 19.2345 143.267 18.7495 143.058 18.3407C142.85 17.9319 142.534 17.6192 142.11 17.4028C141.685 17.1864 141.153 17.0782 140.513 17.0782H137.595V31.7595H133.992V14.2525ZM143.767 31.7595L139.78 23.9559L143.587 23.9319L147.622 31.5912V31.7595H143.767Z" fill="#000C24"/>
<path d="M153.578 14.2525V31.7595H149.987V14.2525H153.578Z" fill="#000C24"/>
<path d="M163.761 25.519H159.306V22.7054H163.761C164.449 22.7054 165.01 22.5932 165.442 22.3687C165.874 22.1363 166.19 21.8156 166.39 21.4068C166.591 20.998 166.691 20.5371 166.691 20.024C166.691 19.503 166.591 19.018 166.39 18.5691C166.19 18.1202 165.874 17.7595 165.442 17.487C165.01 17.2144 164.449 17.0782 163.761 17.0782H160.554V31.7595H156.952V14.2525H163.761C165.13 14.2525 166.302 14.501 167.279 14.998C168.264 15.487 169.016 16.1643 169.537 17.0301C170.057 17.8958 170.317 18.8858 170.317 20C170.317 21.1303 170.057 22.1082 169.537 22.9339C169.016 23.7595 168.264 24.3968 167.279 24.8457C166.302 25.2946 165.13 25.519 163.761 25.519Z" fill="#000C24"/>
<path d="M180.62 14.2525V31.7595H177.03V14.2525H180.62ZM186 14.2525V17.0782H171.734V14.2525H186Z" fill="#000C24"/>
</svg>
