<svg width="116" height="45" viewBox="0 0 116 45" fill="none" xmlns="http://www.w3.org/2000/svg">
<rect x="0.401306" width="114.975" height="44.8681" rx="5" fill="#F8F8F8"/>
<path fill-rule="evenodd" clip-rule="evenodd" d="M27.9972 13.0485C27.9462 13.0813 27.9428 13.2305 27.9428 15.4076C27.9428 17.691 27.9358 17.8648 27.8443 17.8648C27.8255 17.8648 27.6388 17.7564 27.4294 17.6239C27.1549 17.4502 27.0179 17.3829 26.9384 17.3829C26.8511 17.3829 26.5419 17.5654 25.4487 18.262C24.69 18.7455 24.0377 19.1801 23.9993 19.2278C23.954 19.2838 23.9293 19.3538 23.9293 19.4259V21.1708V22.8958C23.9293 22.9805 23.9596 23.0624 24.0148 23.1267C24.0619 23.1815 24.7146 23.6175 25.4654 24.0958C26.5706 24.7997 26.8519 24.9651 26.9433 24.9644C27.0335 24.9638 27.3362 24.7843 28.4561 24.0677C29.4627 23.4236 29.8715 23.1444 29.9107 23.0742C29.962 22.9823 29.9647 22.717 29.9574 18.5799L29.9498 14.2974C29.9496 14.224 29.9218 14.1533 29.8718 14.0996C29.7709 13.9912 28.18 13.011 28.1072 13.0123C28.0767 13.0129 28.0272 13.0292 27.9972 13.0485ZM12.1687 17.3048C12.0218 17.3666 9.40336 19.056 9.34521 19.1264C9.29996 19.1812 9.27521 19.25 9.27521 19.3211V21.6307C9.27521 23.931 9.27801 24.053 9.33211 24.1072C9.36341 24.1385 9.41086 24.1641 9.43755 24.1641C9.50566 24.1641 11.1094 23.1461 11.2042 23.0427C11.2543 22.9881 11.2825 22.9169 11.2834 22.8428L11.2975 21.7452C11.3082 20.9103 11.3244 20.5111 11.3495 20.4637C11.4065 20.3559 12.1613 19.8889 12.2786 19.8889C12.385 19.8889 13.0594 20.2943 13.1876 20.4353C13.2575 20.5121 13.2576 20.5144 13.2577 21.6928C13.2578 22.7945 13.2618 22.8805 13.3174 22.9812C13.3627 23.0634 13.5814 23.2183 14.2343 23.6306C15.1558 24.2125 15.2205 24.2377 15.2715 24.0345C15.2846 23.9828 15.2953 22.8844 15.2954 21.5937C15.2955 19.3003 15.2941 19.2449 15.2333 19.1555C15.1496 19.0325 12.3973 17.2792 12.2931 17.2826C12.2504 17.284 12.1944 17.294 12.1687 17.3048ZM34.1772 17.3466C33.9715 17.4426 31.4288 19.0929 31.3574 19.1767C31.3022 19.2416 31.2718 19.3241 31.2718 19.4093V21.1028C31.2718 22.6279 31.2792 22.9442 31.3168 23.0246C31.3799 23.1595 34.1182 24.887 34.269 24.887C34.3414 24.887 34.6062 24.7428 35.1935 24.3837C35.6462 24.1068 36.041 23.8566 36.071 23.8276C36.1009 23.7986 36.1254 23.7332 36.1254 23.6822C36.1254 23.6313 36.1009 23.5666 36.071 23.5385C36.041 23.5103 35.4215 23.1116 34.6942 22.6524C33.967 22.1932 33.3474 21.7861 33.3175 21.7478C33.2708 21.688 33.2631 21.6042 33.2635 21.157C33.2637 20.8704 33.2723 20.6011 33.2826 20.5587C33.2958 20.5042 33.4299 20.3991 33.7385 20.2011C33.979 20.0469 34.2014 19.9133 34.2327 19.9042C34.2922 19.887 35.0908 20.3689 35.1964 20.4858C35.2471 20.5419 35.2543 20.6074 35.2543 21.0168C35.2543 21.2736 35.2688 21.5137 35.2865 21.5503C35.3522 21.6862 35.4734 21.6317 36.3321 21.0798C36.7917 20.7844 37.1919 20.5095 37.2214 20.4688C37.2675 20.4055 37.2752 20.3136 37.2752 19.8269C37.2752 19.3403 37.2675 19.2483 37.2214 19.185C37.1506 19.0876 34.4438 17.3523 34.3306 17.3317C34.2825 17.323 34.2134 17.3297 34.1772 17.3466ZM18.1268 18.2274C17.3738 18.709 16.7263 19.1429 16.6878 19.1915C16.6425 19.2488 16.6178 19.3198 16.6178 19.3928L16.6185 21.1283C16.6191 22.827 16.6235 22.9826 16.6729 23.0513C16.7025 23.0925 17.3497 23.5241 18.1112 24.0106C19.2095 24.7122 19.5187 24.8952 19.6071 24.8957C19.7645 24.8967 22.4791 23.1675 22.5651 23.0115C22.6186 22.9143 22.6223 22.7952 22.6224 21.1402C22.6225 19.1889 22.6252 19.2167 22.4276 19.0862C22.3722 19.0496 21.7389 18.6437 21.0202 18.1842C19.9778 17.5177 19.6915 17.349 19.6046 17.3502C19.5202 17.3513 19.1875 17.5488 18.1268 18.2274ZM27.4329 20.2314C27.7305 20.4189 27.9112 20.7459 27.9113 21.0977L27.9114 21.1695L27.9114 21.2441C27.9116 21.5942 27.7324 21.92 27.4367 22.1075C27.1755 22.2731 26.9498 22.4086 26.9352 22.4086C26.9205 22.4086 26.6931 22.2731 26.4298 22.1074C26.1324 21.9203 25.9538 21.592 25.9582 21.2407L25.9591 21.1702L25.9601 21.0898C25.9645 20.7427 26.1423 20.4209 26.4338 20.2326C26.6905 20.0667 26.9127 19.9308 26.9276 19.9306C26.9425 19.9304 27.1699 20.0657 27.4329 20.2314ZM33.9553 20.5547C33.795 20.6615 33.6986 20.8413 33.6986 21.034V21.1124V21.1638C33.6986 21.3726 33.8055 21.5668 33.9819 21.6785C34.1378 21.7771 34.2743 21.8576 34.2853 21.8572C34.2963 21.8569 34.4313 21.7745 34.5853 21.6741C34.7606 21.5599 34.8681 21.3665 34.8727 21.1574L34.8732 21.1326C34.8775 20.9351 34.8705 20.7572 34.8577 20.7372C34.8169 20.6741 34.3263 20.3775 34.2679 20.3808C34.2371 20.3825 34.0965 20.4608 33.9553 20.5547ZM22.9337 24.3821C22.7768 24.449 20.2898 26.0449 20.2004 26.1359C20.0408 26.2986 20.0402 26.3062 20.0402 28.1743C20.0402 30.0655 20.0387 30.0479 20.2152 30.2272C20.3397 30.3536 21.042 30.793 21.2302 30.8621C21.4661 30.9488 21.8327 30.9172 21.9983 30.7959C22.1691 30.6709 22.2759 30.4805 22.312 30.2366C22.3486 29.9898 22.3521 26.8502 22.3159 26.7871C22.2979 26.7557 22.2262 26.7455 22.0753 26.7527C21.9546 26.7585 21.8594 26.8574 21.8583 26.9782L21.8447 28.4612L21.8305 30.0165C21.8296 30.108 21.7926 30.1954 21.7275 30.2597C21.5543 30.4309 21.4318 30.4062 20.9564 30.1043C20.7053 29.9448 20.5527 29.6686 20.5512 29.3712L20.5455 28.1832L20.5448 28.0366C20.5402 27.0912 21.0204 26.2094 21.817 25.7004C22.6472 25.17 23.1145 24.8903 23.1474 24.9041C23.1753 24.9158 23.7616 25.2846 24.4502 25.7237C25.2302 26.221 25.7024 27.082 25.7025 28.007L25.7025 28.1784L25.7025 28.3229C25.7026 29.2647 25.2221 30.1415 24.4282 30.6482C23.7273 31.0956 23.1358 31.4614 23.1137 31.461C23.0917 31.4607 22.9222 31.3613 22.7371 31.2402L22.5807 31.1377C22.4692 31.0648 22.3273 31.0566 22.2082 31.1163C22.1024 31.1693 21.9902 31.2223 21.9588 31.234C21.9274 31.2456 21.9074 31.2738 21.9142 31.2966C21.9211 31.3194 22.1498 31.4843 22.4224 31.663C22.9451 32.0055 23.0836 32.0573 23.2775 31.9825C23.4516 31.9154 25.932 30.3157 26.0343 30.2046C26.0884 30.1459 26.1484 30.0331 26.1677 29.954C26.192 29.8541 26.2 29.2864 26.1938 28.0947L26.1858 26.5405C26.1852 26.4349 26.1563 26.3315 26.1021 26.2409C26.0302 26.1207 25.841 25.9885 24.6636 25.236C23.2238 24.3158 23.1613 24.285 22.9337 24.3821ZM26.8044 25.9159C26.4223 26.1737 26.4847 26.779 26.9079 26.9193C27.0888 26.9793 27.2425 26.9367 27.3878 26.7866C27.6328 26.5333 27.5954 26.11 27.3111 25.9182C27.18 25.8298 26.9337 25.8287 26.8044 25.9159ZM27.212 26.0037C27.3349 26.0605 27.4447 26.2367 27.4449 26.3775C27.4451 26.6096 27.2633 26.8154 27.0597 26.8134C26.826 26.8112 26.6678 26.6378 26.6674 26.3834C26.6671 26.2234 26.7271 26.1133 26.8653 26.0201C26.982 25.9414 27.0684 25.9373 27.212 26.0037ZM26.8538 26.3844C26.8538 26.6884 26.8582 26.7114 26.9161 26.7114C26.9664 26.7114 26.9783 26.6884 26.9783 26.5909C26.9783 26.4943 26.9903 26.4704 27.0391 26.4704C27.084 26.4704 27.1053 26.502 27.1204 26.5909C27.1365 26.6863 27.1554 26.7114 27.2109 26.7114C27.2753 26.7114 27.2793 26.7005 27.2593 26.5796C27.2473 26.5072 27.228 26.4308 27.2163 26.4099C27.2046 26.389 27.2093 26.3622 27.2267 26.3503C27.2832 26.3117 27.2604 26.1661 27.1891 26.111C27.1511 26.0815 27.0601 26.0574 26.9869 26.0574C26.9134 26.0574 26.8538 26.1169 26.8538 26.1904V26.3844ZM27.1183 26.2639C27.1183 26.2923 27.0868 26.3205 27.0483 26.3265C26.9944 26.335 26.9783 26.3205 26.9783 26.2639C26.9783 26.2072 26.9944 26.1928 27.0483 26.2012C27.0868 26.2073 27.1183 26.2355 27.1183 26.2639ZM23.5403 26.675C23.2463 26.714 23.044 26.8044 22.8752 26.9724C22.5582 27.2876 22.534 27.7928 22.8206 28.11C22.9832 28.2899 23.2286 28.3782 23.7696 28.4517C24.3938 28.5365 24.5985 28.6114 24.634 28.7678C24.681 28.9751 24.5412 29.1644 24.2988 29.2219C24.0962 29.27 23.6641 29.2688 23.4568 29.2196C23.2686 29.175 23.1046 29.0209 23.0736 28.8596C23.0378 28.6729 23.0174 28.6569 22.8031 28.6462C22.5402 28.6331 22.5133 28.6652 22.5584 28.9378C22.595 29.1594 22.7025 29.3536 22.8725 29.5049C23.2007 29.7972 24.0835 29.8793 24.6077 29.6661C24.8454 29.5695 25.0865 29.3018 25.1374 29.078C25.2157 28.7341 25.1636 28.4777 24.9744 28.276C24.8047 28.0952 24.5754 28.0125 23.9759 27.9162C23.3888 27.8217 23.209 27.7591 23.1702 27.6354C23.1278 27.5003 23.1962 27.3484 23.3332 27.2737C23.4723 27.1978 23.9799 27.1686 24.171 27.2256C24.3456 27.2776 24.4742 27.4053 24.5379 27.5901C24.5697 27.6822 24.6565 27.7441 24.7539 27.7441H24.8184C24.9434 27.7441 25.0544 27.7284 25.0651 27.7091C25.103 27.6413 25.0127 27.2952 24.9149 27.1336C24.7933 26.9325 24.5572 26.7697 24.3115 26.7174C24.0543 26.6627 23.7564 26.6463 23.5403 26.675Z" fill="#000C24"/>
<path d="M59.4943 13.253V30.7717H55.8945L48.875 19.0284V30.7717H45.2752V13.253H48.875L55.9065 25.0083V13.253H59.4943Z" fill="#000C24"/>
<path d="M76.9772 21.6032V22.4335C76.9772 23.765 76.7972 24.9602 76.4372 26.019C76.0772 27.0778 75.5693 27.9802 74.9133 28.7262C74.2573 29.4642 73.4734 30.0297 72.5614 30.4228C71.6575 30.8158 70.6536 31.0123 69.5496 31.0123C68.4537 31.0123 67.4498 30.8158 66.5378 30.4228C65.6339 30.0297 64.8499 29.4642 64.186 28.7262C63.522 27.9802 63.0061 27.0778 62.6381 26.019C62.2781 24.9602 62.0981 23.765 62.0981 22.4335V21.6032C62.0981 20.2637 62.2781 19.0685 62.6381 18.0177C62.9981 16.9589 63.506 16.0564 64.162 15.3105C64.8259 14.5645 65.6099 13.9949 66.5138 13.6019C67.4258 13.2089 68.4297 13.0123 69.5256 13.0123C70.6296 13.0123 71.6335 13.2089 72.5374 13.6019C73.4494 13.9949 74.2333 14.5645 74.8893 15.3105C75.5533 16.0564 76.0652 16.9589 76.4252 18.0177C76.7932 19.0685 76.9772 20.2637 76.9772 21.6032ZM73.3414 22.4335V21.5792C73.3414 20.6487 73.2574 19.8305 73.0894 19.1246C72.9214 18.4187 72.6734 17.8252 72.3455 17.3439C72.0175 16.8626 71.6175 16.5016 71.1455 16.261C70.6736 16.0123 70.1336 15.888 69.5256 15.888C68.9177 15.888 68.3777 16.0123 67.9057 16.261C67.4418 16.5016 67.0458 16.8626 66.7178 17.3439C66.3978 17.8252 66.1539 18.4187 65.9859 19.1246C65.8179 19.8305 65.7339 20.6487 65.7339 21.5792V22.4335C65.7339 23.3559 65.8179 24.1741 65.9859 24.888C66.1539 25.5939 66.4018 26.1915 66.7298 26.6808C67.0578 27.1621 67.4578 27.527 67.9297 27.7757C68.4017 28.0244 68.9417 28.1487 69.5496 28.1487C70.1576 28.1487 70.6976 28.0244 71.1695 27.7757C71.6415 27.527 72.0375 27.1621 72.3575 26.6808C72.6774 26.1915 72.9214 25.5939 73.0894 24.888C73.2574 24.1741 73.3414 23.3559 73.3414 22.4335Z" fill="#000C24"/>
<path d="M84.9327 30.7717H81.1289L81.1529 27.9562H84.9327C85.8766 27.9562 86.6725 27.7436 87.3205 27.3185C87.9685 26.8853 88.4564 26.2556 88.7844 25.4294C89.1204 24.6032 89.2884 23.6046 89.2884 22.4335V21.5792C89.2884 20.6808 89.1924 19.8907 89.0004 19.2089C88.8164 18.527 88.5404 17.9535 88.1724 17.4883C87.8045 17.023 87.3525 16.6741 86.8165 16.4415C86.2806 16.2008 85.6646 16.0805 84.9686 16.0805H81.0569V13.253H84.9686C86.1366 13.253 87.2045 13.4535 88.1724 13.8546C89.1484 14.2476 89.9923 14.8131 90.7043 15.5511C91.4162 16.2891 91.9642 17.1714 92.3482 18.1982C92.7401 19.2169 92.9361 20.3519 92.9361 21.6032V22.4335C92.9361 23.6768 92.7401 24.8118 92.3482 25.8385C91.9642 26.8653 91.4162 27.7476 90.7043 28.4856C90.0003 29.2155 89.1564 29.781 88.1724 30.1821C87.1965 30.5752 86.1166 30.7717 84.9327 30.7717ZM83.1688 13.253V30.7717H79.569V13.253H83.1688Z" fill="#000C24"/>
<path d="M107.275 27.9562V30.7717H97.9758V27.9562H107.275ZM99.1517 13.253V30.7717H95.552V13.253H99.1517ZM106.063 20.388V23.1313H97.9758V20.388H106.063ZM107.263 13.253V16.0805H97.9758V13.253H107.263Z" fill="#000C24"/>
</svg>
