<svg width="127" height="46" viewBox="0 0 127 46" fill="none" xmlns="http://www.w3.org/2000/svg">
<rect width="126.893" height="45.3015" rx="5" fill="#F8F8F8"/>
<path fill-rule="evenodd" clip-rule="evenodd" d="M15.7673 9.40959C15.1054 9.46269 14.6375 9.69767 14.1789 10.2073C13.6966 10.7432 13.4045 11.4785 13.2413 12.5674C13.1434 13.2204 13.1441 14.5761 13.2428 15.43C13.304 15.9598 13.427 16.728 13.5374 17.2709C13.5602 17.3826 13.4975 17.4942 13.3902 17.5328L13.0312 17.6622C12.3035 17.9244 11.8406 18.1205 11.2368 18.4226C10.1358 18.9734 9.3505 19.5317 8.72107 20.2112C8.03696 20.9497 7.74121 21.6043 7.74121 22.3799C7.74121 22.8127 7.81394 23.1312 8.00539 23.5368C8.6611 24.9258 10.54 26.2458 13.123 27.1321C13.3711 27.2172 13.5793 27.2915 13.5856 27.2972C13.592 27.3028 13.5471 27.5818 13.4858 27.9171C13.2621 29.1427 13.2029 29.7506 13.2022 30.8299C13.2015 31.9301 13.2754 32.5294 13.5002 33.2466C13.7004 33.8853 13.9364 34.3008 14.3236 34.6964C14.5315 34.9088 14.6418 34.992 14.8722 35.11C15.3125 35.3354 15.4775 35.3711 16.0784 35.371C16.4601 35.3709 16.6594 35.3555 16.8561 35.3111C18.2018 35.0071 19.906 33.9657 21.4614 32.4968L21.4819 32.4775C21.6374 32.3307 21.8801 32.3296 22.037 32.475C25.0437 35.2641 27.8 36.1101 29.207 34.6759C29.9631 33.9052 30.3266 32.6662 30.3258 30.8624C30.3253 29.8661 30.2397 29.0114 30.0272 27.8827C29.9672 27.5641 29.9224 27.3002 29.9277 27.2961C29.933 27.2922 30.1543 27.212 30.4195 27.118C32.6875 26.3143 34.3362 25.2497 35.1904 24.0372C35.7884 23.1885 35.9057 22.1891 35.5118 21.3001C35.3322 20.8948 35.1005 20.5713 34.6693 20.1238C34.0359 19.4663 33.4069 19.0214 32.3327 18.4709C31.6869 18.1399 31.1205 17.8983 30.3838 17.6394C30.1211 17.5471 29.901 17.4672 29.8947 17.4619C29.8883 17.4566 29.9265 17.2217 29.9796 16.9398C30.21 15.7171 30.2754 15.06 30.2774 13.946C30.279 13.0266 30.2554 12.7275 30.1339 12.1294C29.9892 11.4174 29.7115 10.7416 29.3906 10.3212C28.0515 8.5664 25.2906 9.27322 22.1149 12.1838C21.8956 12.3848 21.5591 12.3849 21.3397 12.184L21.306 12.1532C19.6625 10.6486 18.0432 9.70039 16.7005 9.45659C16.3666 9.39596 16.1028 9.38266 15.7673 9.40959ZM16.5115 10.8032C17.5138 10.9667 18.9696 11.8421 20.4196 13.1534L20.5746 13.2934C20.702 13.4086 20.7116 13.6054 20.5962 13.7325C20.0476 14.3365 19.3869 15.1594 18.8035 15.9652C18.4813 16.4104 18.4226 16.4761 18.347 16.4761C18.0242 16.4761 16.3096 16.764 15.4312 16.9657C15.1166 17.038 14.854 17.0917 14.8478 17.0852C14.824 17.0604 14.6472 16.0838 14.5878 15.649C14.2999 13.5409 14.5252 11.7748 15.1704 11.0817C15.452 10.7792 15.8535 10.6959 16.5115 10.8032ZM27.9774 10.8438C28.4328 11.0613 28.7314 11.6373 28.9047 12.6322C28.9644 12.9749 28.9724 13.134 28.9717 13.9622C28.971 14.7497 28.9596 14.9901 28.9016 15.4381C28.8254 16.0267 28.6508 17.0299 28.6179 17.0678C28.6065 17.081 28.3457 17.034 28.0384 16.9634C27.3264 16.7996 26.3672 16.6297 25.6164 16.5345L25.426 16.5103C25.1724 16.4782 24.9435 16.3425 24.7935 16.1355C24.268 15.4105 23.7207 14.7146 23.2147 14.1278C23.0624 13.9513 22.8772 13.736 22.8032 13.6493C22.7276 13.561 22.7344 13.4289 22.8186 13.3487L22.8408 13.3276C24.0618 12.1639 25.38 11.2774 26.4258 10.9166C26.8314 10.7766 27.0742 10.736 27.4486 10.7457C27.7452 10.7534 27.8157 10.7665 27.9774 10.8438ZM22.1926 14.9921C22.4435 15.282 22.7852 15.6944 22.952 15.9085C23.0754 16.0668 22.9626 16.2977 22.7619 16.2977H21.7387C20.4 16.2977 20.2249 16.292 20.2471 16.2491C20.3195 16.109 21.6812 14.465 21.7248 14.465C21.7313 14.465 21.9418 14.7022 22.1926 14.9921ZM23.5756 17.7084C23.875 17.7273 24.1635 17.75 24.2167 17.7588C24.3029 17.7731 24.3571 17.8441 24.7182 18.4149C25.1504 19.0983 25.5423 19.7676 25.91 20.4498C26.2044 20.996 26.842 22.3098 26.842 22.3702C26.842 22.4392 26.3319 23.5061 25.9612 24.2126C25.5657 24.9661 25.1096 25.7555 24.6562 26.4713L24.4584 26.7835C24.3677 26.9265 24.2149 27.0185 24.0461 27.0315C22.5649 27.1463 20.3021 27.1424 19.3448 27.0235C19.2364 27.01 19.1395 26.9491 19.0804 26.8572L18.8087 26.4346C18.4299 25.8454 17.7465 24.6695 17.423 24.0504C17.1416 23.5119 16.6383 22.4518 16.6383 22.3976C16.6383 22.3312 17.2947 20.9742 17.6118 20.3849C18.0453 19.5794 18.6111 18.6175 18.9789 18.0607C19.1526 17.7978 19.1725 17.7789 19.2934 17.7616C19.4203 17.7434 20.3025 17.6855 20.7913 17.6632C21.2231 17.6436 23.0084 17.6725 23.5756 17.7084ZM17.4471 17.9802C17.4471 17.9867 17.3217 18.2043 17.1684 18.4637C16.8065 19.0759 16.49 19.6515 16.1857 20.2508L16.0082 20.6003C15.9818 20.6523 15.9066 20.6491 15.8846 20.5952C15.6767 20.0847 15.1557 18.4654 15.1884 18.4313C15.2138 18.4049 15.9833 18.2347 16.6072 18.1177C17.4372 17.9619 17.4471 17.9603 17.4471 17.9802ZM26.5777 18.0637C27.3552 18.2039 28.2255 18.3945 28.2621 18.4327C28.2963 18.4684 27.7882 20.09 27.591 20.5742C27.5697 20.6264 27.4971 20.6296 27.4714 20.5795L27.3874 20.4162C27.0776 19.8134 26.6313 19.007 26.325 18.4967C26.1507 18.2061 26.0171 17.9683 26.0283 17.9683C26.0395 17.9683 26.2868 18.0113 26.5777 18.0637ZM30.8622 19.2724C31.9881 19.7364 33.0506 20.3878 33.6749 20.9969C34.0045 21.3184 34.1854 21.5626 34.332 21.8842C34.4329 22.1056 34.447 22.1664 34.447 22.3799C34.447 22.5933 34.4329 22.6541 34.332 22.8755C33.8524 23.9274 32.3531 24.9592 30.0978 25.7895C29.8609 25.8767 29.6415 25.948 29.6103 25.948C29.5714 25.948 29.5464 25.9147 29.5313 25.8426C29.448 25.4447 28.8643 23.7596 28.5074 22.8867C28.3737 22.5596 28.3715 22.1934 28.5013 21.8647L28.5643 21.7053C28.9332 20.7712 29.3745 19.4786 29.5156 18.9188C29.534 18.8458 29.6113 18.8045 29.6822 18.8297L30.0004 18.9428C30.2481 19.0309 30.6359 19.1792 30.8622 19.2724ZM14.1794 19.6875C14.4548 20.5495 14.72 21.2815 15.0191 22.0054C15.1218 22.2539 15.1229 22.5328 15.0223 22.7823L14.9627 22.9298C14.5972 23.8356 14.2867 24.7204 14.055 25.5163C13.9833 25.7627 13.9214 25.968 13.9175 25.9727C13.9136 25.9774 13.7298 25.9166 13.509 25.8376C11.7868 25.2218 10.57 24.5305 9.73811 23.6954C9.18783 23.1429 8.9533 22.6305 9.04554 22.182C9.26495 21.1152 10.9337 19.8708 13.3097 19.002C13.592 18.8988 13.8414 18.8174 13.8639 18.8211C13.8881 18.8251 14.0176 19.1807 14.1794 19.6875ZM21.1957 19.7013C20.5849 19.8486 20.0271 20.2111 19.6732 20.6906C19.2506 21.2633 19.0624 21.948 19.1308 22.6642C19.242 23.8285 20.0364 24.7694 21.1397 25.0433C21.368 25.1 21.4833 25.109 21.8335 25.0976C22.2051 25.0855 22.2875 25.0718 22.549 24.9791C23.3981 24.678 24.0186 24.0004 24.2673 23.1029C24.3257 22.892 24.3372 22.7724 24.3367 22.3799C24.336 21.8191 24.2962 21.636 24.0722 21.1634C23.7479 20.479 23.1576 19.9636 22.4544 19.7511C22.1554 19.6607 21.4754 19.6338 21.1957 19.7013ZM28.026 25.4315C28.179 25.9056 28.3041 26.3021 28.3041 26.3127C28.3041 26.3662 26.0863 26.8252 26.0435 26.7805C26.0364 26.7732 26.1761 26.5208 26.354 26.2197C26.6844 25.6604 27.2081 24.6964 27.417 24.2628C27.4613 24.1709 27.594 24.1759 27.6312 24.271L27.6407 24.2953C27.6997 24.4461 27.8731 24.9573 28.026 25.4315ZM16.157 24.4775C16.4372 25.0296 16.7702 25.6302 17.1413 26.2527C17.3104 26.5362 17.4429 26.7742 17.4359 26.7815C17.4096 26.8089 16.0769 26.5552 15.3943 26.3928C15.2812 26.3659 15.2201 26.3341 15.2136 26.2987C15.198 26.2144 15.8968 24.0666 15.9398 24.0666C15.9446 24.0666 16.0424 24.2515 16.157 24.4775ZM15.4784 27.8126C16.1042 27.9548 17.0812 28.1285 17.7582 28.2179C18.0405 28.2552 18.3152 28.2929 18.3687 28.3016C18.4513 28.315 18.5195 28.3913 18.8247 28.8114C19.326 29.5013 19.7653 30.0557 20.3317 30.713L20.696 31.1357C20.7639 31.2145 20.7569 31.333 20.6801 31.4033C19.6549 32.3419 18.829 32.9671 18.0382 33.4029C16.8893 34.0362 15.8999 34.2002 15.3626 33.8465C14.597 33.3426 14.296 31.3981 14.6194 29.0459C14.6782 28.6185 14.8194 27.7997 14.8506 27.7055C14.8585 27.6817 14.889 27.6706 14.9194 27.6804C14.9494 27.6901 15.201 27.7496 15.4784 27.8126ZM28.7051 27.9997C28.9274 29.103 29.0013 29.8153 29.0006 30.8462C29.0001 31.5442 28.9895 31.7373 28.9328 32.0827C28.776 33.0372 28.4713 33.6592 28.0519 33.8809C27.5458 34.1483 26.6514 33.9927 25.6287 33.4595C24.7813 33.0176 23.9882 32.445 23.0552 31.6014L22.9057 31.4663C22.7783 31.3511 22.7687 31.1543 22.8841 31.0272C23.4309 30.4252 24.0935 29.6003 24.6714 28.8018L24.746 28.6988C24.9308 28.4435 25.2138 28.2769 25.5268 28.2393C26.198 28.1586 27.3701 27.9512 28.0086 27.8C28.2994 27.7312 28.5601 27.6731 28.5878 27.6711C28.6272 27.6681 28.6527 27.7393 28.7051 27.9997ZM23.2404 28.4944C23.171 28.6184 22.5593 29.3791 22.1367 29.8671L21.8769 30.1669C21.8151 30.2382 21.7058 30.2421 21.6392 30.1752C21.4105 29.9457 20.4644 28.8058 20.2441 28.4944C20.2288 28.4729 20.7328 28.462 21.7398 28.462C22.7437 28.462 23.2524 28.473 23.2404 28.4944Z" fill="#000C24"/>
<path d="M43.7412 13.6235H50.2771C51.6172 13.6235 52.7687 13.8239 53.7316 14.2247C54.7025 14.6255 55.4488 15.2187 55.9704 16.0042C56.492 16.7898 56.7528 17.7557 56.7528 18.902C56.7528 19.8399 56.5923 20.6455 56.2713 21.3189C55.9584 21.9842 55.513 22.5413 54.9352 22.9902C54.3655 23.4311 53.6955 23.7838 52.9251 24.0483L51.7817 24.6495H46.1004L46.0763 21.8359H50.3012C50.9351 21.8359 51.4607 21.7237 51.8779 21.4992C52.2952 21.2748 52.6082 20.9622 52.8168 20.5614C53.0335 20.1606 53.1418 19.6956 53.1418 19.1666C53.1418 18.6054 53.0375 18.1205 52.8288 17.7117C52.6202 17.3028 52.3032 16.9902 51.8779 16.7738C51.4527 16.5573 50.919 16.4491 50.2771 16.4491H47.3522V31.1305H43.7412V13.6235ZM53.539 31.1305L49.5428 23.3269L53.3584 23.3028L57.4027 30.9622V31.1305H53.539Z" fill="#000C24"/>
<path d="M71.293 28.3169V31.1305H61.9646V28.3169H71.293ZM63.1442 13.6235V31.1305H59.5332V13.6235H63.1442ZM70.0773 20.7537V23.4952H61.9646V20.7537H70.0773ZM71.2809 13.6235V16.4491H61.9646V13.6235H71.2809Z" fill="#000C24"/>
<path d="M80.525 16.6175L75.7585 31.1305H71.9189L78.4307 13.6235H80.8741L80.525 16.6175ZM84.4851 31.1305L79.7065 16.6175L79.3214 13.6235H81.7889L88.3368 31.1305H84.4851ZM84.2684 24.6135V27.4391H75.0123V24.6135H84.2684Z" fill="#000C24"/>
<path d="M99.9039 25.3229H103.503C103.431 26.5012 103.106 27.5473 102.528 28.4612C101.958 29.375 101.16 30.0884 100.133 30.6014C99.1135 31.1145 97.8858 31.371 96.4494 31.371C95.326 31.371 94.319 31.1786 93.4283 30.7938C92.5376 30.401 91.7752 29.8399 91.1413 29.1105C90.5154 28.381 90.038 27.4992 89.709 26.4652C89.38 25.4311 89.2155 24.2728 89.2155 22.9902V21.7758C89.2155 20.4932 89.384 19.3349 89.721 18.3008C90.066 17.2587 90.5555 16.373 91.1895 15.6435C91.8314 14.9141 92.5977 14.3529 93.4884 13.9602C94.3792 13.5674 95.3742 13.371 96.4735 13.371C97.934 13.371 99.1657 13.6355 100.169 14.1646C101.18 14.6936 101.962 15.4231 102.516 16.3529C103.078 17.2828 103.415 18.3409 103.527 19.5273H99.916C99.8759 18.8219 99.7354 18.2247 99.4947 17.7357C99.254 17.2387 98.8889 16.866 98.3994 16.6175C97.9179 16.361 97.276 16.2327 96.4735 16.2327C95.8717 16.2327 95.3461 16.3449 94.8967 16.5694C94.4474 16.7938 94.0702 17.1345 93.7653 17.5914C93.4604 18.0483 93.2317 18.6255 93.0792 19.3229C92.9348 20.0123 92.8625 20.8219 92.8625 21.7517V22.9902C92.8625 23.896 92.9307 24.6936 93.0672 25.383C93.2036 26.0644 93.4122 26.6415 93.6931 27.1145C93.9819 27.5794 94.3511 27.9321 94.8004 28.1726C95.2578 28.405 95.8075 28.5213 96.4494 28.5213C97.2037 28.5213 97.8256 28.401 98.3151 28.1606C98.8046 27.9201 99.1777 27.5634 99.4345 27.0904C99.6993 26.6175 99.8558 26.0283 99.9039 25.3229Z" fill="#000C24"/>
<path d="M113.349 13.6235V31.1305H109.75V13.6235H113.349ZM118.741 13.6235V16.4491H104.442V13.6235H118.741Z" fill="#000C24"/>
</svg>
